<mxfile host="app.diagrams.net" modified="2022-11-07T16:11:51.769Z" agent="5.0 (Windows NT 10.0; Win64; x64) AppleWebKit/537.36 (KHTML, like Gecko) Chrome/107.0.0.0 Safari/537.36" etag="nUiqnimPtFimkdjJh0-K" version="20.5.3" type="github">
  <diagram id="GdOwkg1XycD7-fKUeGtV" name="Page-1">
    <mxGraphModel dx="1673" dy="946" grid="1" gridSize="10" guides="1" tooltips="1" connect="1" arrows="1" fold="1" page="1" pageScale="1" pageWidth="850" pageHeight="1100" math="0" shadow="0">
      <root>
        <mxCell id="0" />
        <mxCell id="1" parent="0" />
        <mxCell id="IOj1brbXSDFdIHuz_lz_-3" value="" style="edgeStyle=orthogonalEdgeStyle;rounded=0;orthogonalLoop=1;jettySize=auto;html=1;" edge="1" parent="1" source="IOj1brbXSDFdIHuz_lz_-1" target="IOj1brbXSDFdIHuz_lz_-2">
          <mxGeometry relative="1" as="geometry" />
        </mxCell>
        <mxCell id="IOj1brbXSDFdIHuz_lz_-1" value="Player ID" style="shape=trapezoid;perimeter=trapezoidPerimeter;whiteSpace=wrap;html=1;fixedSize=1;direction=west;" vertex="1" parent="1">
          <mxGeometry x="790" y="20" width="120" height="60" as="geometry" />
        </mxCell>
        <mxCell id="IOj1brbXSDFdIHuz_lz_-5" value="" style="edgeStyle=orthogonalEdgeStyle;rounded=0;orthogonalLoop=1;jettySize=auto;html=1;" edge="1" parent="1" source="IOj1brbXSDFdIHuz_lz_-2" target="IOj1brbXSDFdIHuz_lz_-4">
          <mxGeometry relative="1" as="geometry" />
        </mxCell>
        <mxCell id="IOj1brbXSDFdIHuz_lz_-7" value="" style="edgeStyle=orthogonalEdgeStyle;rounded=0;orthogonalLoop=1;jettySize=auto;html=1;" edge="1" parent="1" source="IOj1brbXSDFdIHuz_lz_-2" target="IOj1brbXSDFdIHuz_lz_-6">
          <mxGeometry relative="1" as="geometry" />
        </mxCell>
        <mxCell id="IOj1brbXSDFdIHuz_lz_-2" value="Check Playable Balance &amp;gt;= 1" style="rounded=0;whiteSpace=wrap;html=1;" vertex="1" parent="1">
          <mxGeometry x="790" y="120" width="120" height="60" as="geometry" />
        </mxCell>
        <mxCell id="IOj1brbXSDFdIHuz_lz_-4" value="Cashback cannot be claimed &lt;br&gt;while your balance is above $1." style="shape=trapezoid;perimeter=trapezoidPerimeter;whiteSpace=wrap;html=1;fixedSize=1;" vertex="1" parent="1">
          <mxGeometry x="1020" y="120" width="210" height="60" as="geometry" />
        </mxCell>
        <mxCell id="IOj1brbXSDFdIHuz_lz_-9" value="" style="edgeStyle=orthogonalEdgeStyle;rounded=0;orthogonalLoop=1;jettySize=auto;html=1;" edge="1" parent="1" source="IOj1brbXSDFdIHuz_lz_-6" target="IOj1brbXSDFdIHuz_lz_-8">
          <mxGeometry relative="1" as="geometry" />
        </mxCell>
        <mxCell id="IOj1brbXSDFdIHuz_lz_-11" value="" style="edgeStyle=orthogonalEdgeStyle;rounded=0;orthogonalLoop=1;jettySize=auto;html=1;" edge="1" parent="1" source="IOj1brbXSDFdIHuz_lz_-6" target="IOj1brbXSDFdIHuz_lz_-10">
          <mxGeometry relative="1" as="geometry" />
        </mxCell>
        <mxCell id="IOj1brbXSDFdIHuz_lz_-6" value="Check Pending Withdrawals = 0" style="whiteSpace=wrap;html=1;rounded=0;" vertex="1" parent="1">
          <mxGeometry x="790" y="230" width="120" height="60" as="geometry" />
        </mxCell>
        <mxCell id="IOj1brbXSDFdIHuz_lz_-8" value="Cashback cannot be claimed&lt;br&gt;while you have a Pending Withdrawal." style="shape=trapezoid;perimeter=trapezoidPerimeter;whiteSpace=wrap;html=1;fixedSize=1;rounded=0;" vertex="1" parent="1">
          <mxGeometry x="1010" y="230" width="250" height="60" as="geometry" />
        </mxCell>
        <mxCell id="IOj1brbXSDFdIHuz_lz_-13" value="" style="edgeStyle=orthogonalEdgeStyle;rounded=0;orthogonalLoop=1;jettySize=auto;html=1;" edge="1" parent="1" source="IOj1brbXSDFdIHuz_lz_-10" target="IOj1brbXSDFdIHuz_lz_-12">
          <mxGeometry relative="1" as="geometry" />
        </mxCell>
        <mxCell id="IOj1brbXSDFdIHuz_lz_-28" value="" style="edgeStyle=orthogonalEdgeStyle;rounded=0;orthogonalLoop=1;jettySize=auto;html=1;" edge="1" parent="1" source="IOj1brbXSDFdIHuz_lz_-10" target="IOj1brbXSDFdIHuz_lz_-27">
          <mxGeometry relative="1" as="geometry" />
        </mxCell>
        <mxCell id="IOj1brbXSDFdIHuz_lz_-10" value="Check Active Coupon = None" style="whiteSpace=wrap;html=1;rounded=0;" vertex="1" parent="1">
          <mxGeometry x="790" y="340" width="120" height="60" as="geometry" />
        </mxCell>
        <mxCell id="IOj1brbXSDFdIHuz_lz_-12" value="Cashback cannot be claimed while you have an Active Coupon" style="shape=trapezoid;perimeter=trapezoidPerimeter;whiteSpace=wrap;html=1;fixedSize=1;rounded=0;" vertex="1" parent="1">
          <mxGeometry x="990" y="340" width="290" height="60" as="geometry" />
        </mxCell>
        <mxCell id="IOj1brbXSDFdIHuz_lz_-20" value="" style="edgeStyle=orthogonalEdgeStyle;rounded=0;orthogonalLoop=1;jettySize=auto;html=1;" edge="1" parent="1" source="IOj1brbXSDFdIHuz_lz_-17" target="IOj1brbXSDFdIHuz_lz_-19">
          <mxGeometry relative="1" as="geometry" />
        </mxCell>
        <mxCell id="IOj1brbXSDFdIHuz_lz_-17" value="Get previous 15 &lt;br&gt;days &lt;br&gt;of &quot;Transactions&quot;" style="shape=hexagon;perimeter=hexagonPerimeter2;whiteSpace=wrap;html=1;fixedSize=1;rounded=0;" vertex="1" parent="1">
          <mxGeometry x="790" y="560" width="120" height="80" as="geometry" />
        </mxCell>
        <mxCell id="IOj1brbXSDFdIHuz_lz_-22" value="FALSE" style="edgeStyle=orthogonalEdgeStyle;rounded=0;orthogonalLoop=1;jettySize=auto;html=1;" edge="1" parent="1" source="IOj1brbXSDFdIHuz_lz_-19" target="IOj1brbXSDFdIHuz_lz_-21">
          <mxGeometry relative="1" as="geometry" />
        </mxCell>
        <mxCell id="IOj1brbXSDFdIHuz_lz_-35" value="TRUE" style="edgeStyle=orthogonalEdgeStyle;rounded=0;orthogonalLoop=1;jettySize=auto;html=1;" edge="1" parent="1" source="IOj1brbXSDFdIHuz_lz_-19" target="IOj1brbXSDFdIHuz_lz_-34">
          <mxGeometry relative="1" as="geometry" />
        </mxCell>
        <mxCell id="IOj1brbXSDFdIHuz_lz_-19" value="Cashback Located?" style="whiteSpace=wrap;html=1;rounded=0;" vertex="1" parent="1">
          <mxGeometry x="790" y="700" width="120" height="60" as="geometry" />
        </mxCell>
        <mxCell id="IOj1brbXSDFdIHuz_lz_-31" value="" style="edgeStyle=orthogonalEdgeStyle;rounded=0;orthogonalLoop=1;jettySize=auto;html=1;" edge="1" parent="1" source="IOj1brbXSDFdIHuz_lz_-21" target="IOj1brbXSDFdIHuz_lz_-30">
          <mxGeometry relative="1" as="geometry" />
        </mxCell>
        <mxCell id="IOj1brbXSDFdIHuz_lz_-21" value="" style="shape=waypoint;sketch=0;size=6;pointerEvents=1;points=[];fillColor=default;resizable=0;rotatable=0;perimeter=centerPerimeter;snapToPoint=1;rounded=0;" vertex="1" parent="1">
          <mxGeometry x="1030" y="710" width="40" height="40" as="geometry" />
        </mxCell>
        <mxCell id="IOj1brbXSDFdIHuz_lz_-25" value="" style="shape=waypoint;sketch=0;size=6;pointerEvents=1;points=[];fillColor=default;resizable=0;rotatable=0;perimeter=centerPerimeter;snapToPoint=1;rounded=0;" vertex="1" parent="1">
          <mxGeometry x="890" y="580" width="40" height="40" as="geometry" />
        </mxCell>
        <mxCell id="IOj1brbXSDFdIHuz_lz_-29" value="" style="edgeStyle=orthogonalEdgeStyle;rounded=0;orthogonalLoop=1;jettySize=auto;html=1;" edge="1" parent="1" source="IOj1brbXSDFdIHuz_lz_-27" target="IOj1brbXSDFdIHuz_lz_-17">
          <mxGeometry relative="1" as="geometry" />
        </mxCell>
        <mxCell id="IOj1brbXSDFdIHuz_lz_-27" value="Get Account Open Date" style="shape=hexagon;perimeter=hexagonPerimeter2;whiteSpace=wrap;html=1;fixedSize=1;rounded=0;" vertex="1" parent="1">
          <mxGeometry x="790" y="440" width="120" height="80" as="geometry" />
        </mxCell>
        <mxCell id="IOj1brbXSDFdIHuz_lz_-32" value="TRUE" style="edgeStyle=orthogonalEdgeStyle;rounded=0;orthogonalLoop=1;jettySize=auto;html=1;" edge="1" parent="1" source="IOj1brbXSDFdIHuz_lz_-30" target="IOj1brbXSDFdIHuz_lz_-25">
          <mxGeometry relative="1" as="geometry" />
        </mxCell>
        <mxCell id="IOj1brbXSDFdIHuz_lz_-37" value="FALSE" style="edgeStyle=orthogonalEdgeStyle;rounded=0;orthogonalLoop=1;jettySize=auto;html=1;" edge="1" parent="1" source="IOj1brbXSDFdIHuz_lz_-30" target="IOj1brbXSDFdIHuz_lz_-36">
          <mxGeometry relative="1" as="geometry">
            <Array as="points">
              <mxPoint x="1170" y="600" />
              <mxPoint x="1170" y="920" />
            </Array>
          </mxGeometry>
        </mxCell>
        <mxCell id="IOj1brbXSDFdIHuz_lz_-30" value="Account Open Date &amp;lt; Transaction Search Date" style="rhombus;whiteSpace=wrap;html=1;sketch=0;rounded=0;" vertex="1" parent="1">
          <mxGeometry x="990" y="545" width="120" height="110" as="geometry" />
        </mxCell>
        <mxCell id="IOj1brbXSDFdIHuz_lz_-53" value="" style="edgeStyle=orthogonalEdgeStyle;rounded=0;orthogonalLoop=1;jettySize=auto;html=1;" edge="1" parent="1" source="IOj1brbXSDFdIHuz_lz_-34" target="IOj1brbXSDFdIHuz_lz_-52">
          <mxGeometry relative="1" as="geometry" />
        </mxCell>
        <mxCell id="IOj1brbXSDFdIHuz_lz_-34" value="Review Fetched Transactions" style="ellipse;whiteSpace=wrap;html=1;rounded=0;" vertex="1" parent="1">
          <mxGeometry x="790" y="890" width="120" height="60" as="geometry" />
        </mxCell>
        <mxCell id="IOj1brbXSDFdIHuz_lz_-36" value="" style="shape=waypoint;sketch=0;size=6;pointerEvents=1;points=[];fillColor=default;resizable=0;rotatable=0;perimeter=centerPerimeter;snapToPoint=1;rounded=0;" vertex="1" parent="1">
          <mxGeometry x="890" y="900" width="40" height="40" as="geometry" />
        </mxCell>
        <mxCell id="IOj1brbXSDFdIHuz_lz_-59" value="" style="edgeStyle=orthogonalEdgeStyle;rounded=0;orthogonalLoop=1;jettySize=auto;html=1;" edge="1" parent="1" source="IOj1brbXSDFdIHuz_lz_-40" target="IOj1brbXSDFdIHuz_lz_-58">
          <mxGeometry relative="1" as="geometry" />
        </mxCell>
        <mxCell id="IOj1brbXSDFdIHuz_lz_-40" value="Player ID&lt;br&gt;Transactions&lt;br&gt;Bank Methods" style="shape=trapezoid;perimeter=trapezoidPerimeter;whiteSpace=wrap;html=1;fixedSize=1;direction=west;" vertex="1" parent="1">
          <mxGeometry x="790" y="1170" width="120" height="60" as="geometry" />
        </mxCell>
        <mxCell id="IOj1brbXSDFdIHuz_lz_-50" value="Transaction Parameters" style="swimlane;whiteSpace=wrap;html=1;" vertex="1" collapsed="1" parent="1">
          <mxGeometry x="60" y="990" width="180" height="30" as="geometry">
            <mxRectangle x="60" y="990" width="420" height="450" as="alternateBounds" />
          </mxGeometry>
        </mxCell>
        <mxCell id="IOj1brbXSDFdIHuz_lz_-57" value="&quot;transaction_id&quot;: 0,&#xa;    &quot;player_id&quot;: &quot;string&quot;,&#xa;    &quot;event_id&quot;: 0,&#xa;    &quot;time_stamp&quot;: &quot;2022-11-07T14:28:07.033Z&quot;,&#xa;    &quot;reason&quot;: 0,&#xa;    &quot;reason_description&quot;: &quot;string&quot;,&#xa;    &quot;ledger_amount&quot;: 0,&#xa;    &quot;adjusted_amount&quot;: 0,&#xa;    &quot;request_method_name&quot;: &quot;string&quot;,&#xa;    &quot;request_ledger_description&quot;: &quot;string&quot;,&#xa;    &quot;ledger_method_name&quot;: &quot;string&quot;,&#xa;    &quot;ledger_description&quot;: &quot;string&quot;,&#xa;    &quot;coupon_amount&quot;: 0,&#xa;    &quot;coupon_code&quot;: &quot;string&quot;,&#xa;    &quot;bonus_converted&quot;: 0,&#xa;    &quot;ledger_id&quot;: 0,&#xa;    &quot;method_id&quot;: 0,&#xa;    &quot;time_stamp_with_timezone&quot;: &quot;string&quot;,&#xa;    &quot;currency_code&quot;: &quot;string&quot;,&#xa;    &quot;tracking_one&quot;: &quot;string&quot;,&#xa;    &quot;tracking_two&quot;: &quot;string&quot;,&#xa;    &quot;tracking_three&quot;: &quot;string&quot;,&#xa;    &quot;tracking_four&quot;: &quot;string&quot;,&#xa;    &quot;balance_after_tran&quot;: 0,&#xa;    &quot;created_by&quot;: &quot;string&quot;,&#xa;    &quot;login&quot;: &quot;string&quot;,&#xa;    &quot;ledger_type&quot;: 0,&#xa;    &quot;request_time&quot;: &quot;2022-11-07T14:28:07.033Z&quot;,&#xa;    &quot;request_time_with_timezone&quot;: &quot;string&quot;" style="whiteSpace=wrap;html=1;aspect=fixed;" vertex="1" parent="IOj1brbXSDFdIHuz_lz_-50">
          <mxGeometry y="25" width="420" height="420" as="geometry" />
        </mxCell>
        <mxCell id="IOj1brbXSDFdIHuz_lz_-54" value="" style="edgeStyle=orthogonalEdgeStyle;rounded=0;orthogonalLoop=1;jettySize=auto;html=1;" edge="1" parent="1" source="IOj1brbXSDFdIHuz_lz_-52" target="IOj1brbXSDFdIHuz_lz_-40">
          <mxGeometry relative="1" as="geometry" />
        </mxCell>
        <mxCell id="IOj1brbXSDFdIHuz_lz_-52" value="Get Bank Methods" style="shape=hexagon;perimeter=hexagonPerimeter2;whiteSpace=wrap;html=1;fixedSize=1;rounded=0;" vertex="1" parent="1">
          <mxGeometry x="790" y="1020" width="120" height="80" as="geometry" />
        </mxCell>
        <mxCell id="IOj1brbXSDFdIHuz_lz_-61" value="" style="edgeStyle=orthogonalEdgeStyle;rounded=0;orthogonalLoop=1;jettySize=auto;html=1;" edge="1" parent="1" source="IOj1brbXSDFdIHuz_lz_-58" target="IOj1brbXSDFdIHuz_lz_-60">
          <mxGeometry relative="1" as="geometry" />
        </mxCell>
        <mxCell id="IOj1brbXSDFdIHuz_lz_-58" value="Go through each Transaction and recognize &lt;br&gt;&lt;b&gt;Fund Actions&lt;/b&gt;&amp;nbsp;" style="shape=process;whiteSpace=wrap;html=1;backgroundOutline=1;" vertex="1" parent="1">
          <mxGeometry x="790" y="1310" width="120" height="60" as="geometry" />
        </mxCell>
        <mxCell id="IOj1brbXSDFdIHuz_lz_-64" value="" style="edgeStyle=orthogonalEdgeStyle;rounded=0;orthogonalLoop=1;jettySize=auto;html=1;" edge="1" parent="1" source="IOj1brbXSDFdIHuz_lz_-60" target="IOj1brbXSDFdIHuz_lz_-63">
          <mxGeometry relative="1" as="geometry" />
        </mxCell>
        <mxCell id="IOj1brbXSDFdIHuz_lz_-66" value="" style="edgeStyle=orthogonalEdgeStyle;rounded=0;orthogonalLoop=1;jettySize=auto;html=1;" edge="1" parent="1" source="IOj1brbXSDFdIHuz_lz_-60" target="IOj1brbXSDFdIHuz_lz_-65">
          <mxGeometry relative="1" as="geometry" />
        </mxCell>
        <mxCell id="IOj1brbXSDFdIHuz_lz_-60" value="" style="shape=waypoint;sketch=0;size=6;pointerEvents=1;points=[];fillColor=default;resizable=0;rotatable=0;perimeter=centerPerimeter;snapToPoint=1;" vertex="1" parent="1">
          <mxGeometry x="830" y="1460" width="40" height="40" as="geometry" />
        </mxCell>
        <mxCell id="IOj1brbXSDFdIHuz_lz_-68" value="" style="edgeStyle=orthogonalEdgeStyle;rounded=0;orthogonalLoop=1;jettySize=auto;html=1;" edge="1" parent="1" source="IOj1brbXSDFdIHuz_lz_-63" target="IOj1brbXSDFdIHuz_lz_-67">
          <mxGeometry relative="1" as="geometry" />
        </mxCell>
        <mxCell id="IOj1brbXSDFdIHuz_lz_-63" value="" style="shape=waypoint;sketch=0;size=6;pointerEvents=1;points=[];fillColor=default;resizable=0;rotatable=0;perimeter=centerPerimeter;snapToPoint=1;" vertex="1" parent="1">
          <mxGeometry x="710" y="1460" width="40" height="40" as="geometry" />
        </mxCell>
        <mxCell id="IOj1brbXSDFdIHuz_lz_-70" value="" style="edgeStyle=orthogonalEdgeStyle;rounded=0;orthogonalLoop=1;jettySize=auto;html=1;" edge="1" parent="1" source="IOj1brbXSDFdIHuz_lz_-65" target="IOj1brbXSDFdIHuz_lz_-69">
          <mxGeometry relative="1" as="geometry" />
        </mxCell>
        <mxCell id="IOj1brbXSDFdIHuz_lz_-65" value="" style="shape=waypoint;sketch=0;size=6;pointerEvents=1;points=[];fillColor=default;resizable=0;rotatable=0;perimeter=centerPerimeter;snapToPoint=1;" vertex="1" parent="1">
          <mxGeometry x="950" y="1460" width="40" height="40" as="geometry" />
        </mxCell>
        <mxCell id="IOj1brbXSDFdIHuz_lz_-72" value="" style="edgeStyle=orthogonalEdgeStyle;rounded=0;orthogonalLoop=1;jettySize=auto;html=1;" edge="1" parent="1" source="IOj1brbXSDFdIHuz_lz_-67" target="IOj1brbXSDFdIHuz_lz_-71">
          <mxGeometry relative="1" as="geometry" />
        </mxCell>
        <mxCell id="IOj1brbXSDFdIHuz_lz_-67" value="" style="shape=waypoint;sketch=0;size=6;pointerEvents=1;points=[];fillColor=default;resizable=0;rotatable=0;perimeter=centerPerimeter;snapToPoint=1;" vertex="1" parent="1">
          <mxGeometry x="590" y="1460" width="40" height="40" as="geometry" />
        </mxCell>
        <mxCell id="IOj1brbXSDFdIHuz_lz_-69" value="" style="shape=waypoint;sketch=0;size=6;pointerEvents=1;points=[];fillColor=default;resizable=0;rotatable=0;perimeter=centerPerimeter;snapToPoint=1;" vertex="1" parent="1">
          <mxGeometry x="1070" y="1460" width="40" height="40" as="geometry" />
        </mxCell>
        <mxCell id="IOj1brbXSDFdIHuz_lz_-81" value="" style="edgeStyle=orthogonalEdgeStyle;rounded=0;orthogonalLoop=1;jettySize=auto;html=1;" edge="1" parent="1" source="IOj1brbXSDFdIHuz_lz_-71" target="IOj1brbXSDFdIHuz_lz_-80">
          <mxGeometry relative="1" as="geometry" />
        </mxCell>
        <mxCell id="IOj1brbXSDFdIHuz_lz_-71" value="&quot;reason&quot; = 8&amp;nbsp;&lt;br&gt;AND&lt;br&gt;&quot;ledger_description&quot; = &quot;Deposit&quot;&lt;br&gt;&lt;br&gt;DEPOSIT APPROVED" style="whiteSpace=wrap;html=1;sketch=0;" vertex="1" parent="1">
          <mxGeometry x="520" y="1570" width="180" height="90" as="geometry" />
        </mxCell>
        <mxCell id="IOj1brbXSDFdIHuz_lz_-78" value="Fund Actions" style="swimlane;whiteSpace=wrap;html=1;" vertex="1" parent="1">
          <mxGeometry x="50" y="1100" width="290" height="310" as="geometry" />
        </mxCell>
        <mxCell id="IOj1brbXSDFdIHuz_lz_-79" value="1. Bonus Free Deposit&lt;br&gt;2. Deposit Bonus&lt;br&gt;3. Cashback&lt;br&gt;4. Free Promotion&lt;br&gt;5. Redeem Comp Points&lt;br&gt;6. Re-Deposit Deduction&lt;br&gt;7. Re-Deposit&lt;br&gt;8. Live Dealer Deposit&lt;br&gt;9. Live Dealer Withdrawal&lt;br&gt;10. Withdrawal Request&lt;br&gt;11. Withdrawal Processed&lt;br&gt;12. Withdrawal Cancelled&lt;br&gt;13. Slot Tournament Deduction" style="whiteSpace=wrap;html=1;aspect=fixed;" vertex="1" parent="IOj1brbXSDFdIHuz_lz_-78">
          <mxGeometry x="10" y="30" width="270" height="270" as="geometry" />
        </mxCell>
        <mxCell id="IOj1brbXSDFdIHuz_lz_-83" value="" style="edgeStyle=orthogonalEdgeStyle;rounded=0;orthogonalLoop=1;jettySize=auto;html=1;" edge="1" parent="1" source="IOj1brbXSDFdIHuz_lz_-80" target="IOj1brbXSDFdIHuz_lz_-82">
          <mxGeometry relative="1" as="geometry" />
        </mxCell>
        <mxCell id="IOj1brbXSDFdIHuz_lz_-80" value="" style="shape=waypoint;sketch=0;size=6;pointerEvents=1;points=[];fillColor=default;resizable=0;rotatable=0;perimeter=centerPerimeter;snapToPoint=1;" vertex="1" parent="1">
          <mxGeometry x="590" y="1765" width="40" height="40" as="geometry" />
        </mxCell>
        <mxCell id="IOj1brbXSDFdIHuz_lz_-85" value="" style="edgeStyle=orthogonalEdgeStyle;rounded=0;orthogonalLoop=1;jettySize=auto;html=1;" edge="1" parent="1" source="IOj1brbXSDFdIHuz_lz_-82" target="IOj1brbXSDFdIHuz_lz_-84">
          <mxGeometry relative="1" as="geometry" />
        </mxCell>
        <mxCell id="IOj1brbXSDFdIHuz_lz_-82" value="" style="shape=waypoint;sketch=0;size=6;pointerEvents=1;points=[];fillColor=default;resizable=0;rotatable=0;perimeter=centerPerimeter;snapToPoint=1;" vertex="1" parent="1">
          <mxGeometry x="470" y="1765" width="40" height="40" as="geometry" />
        </mxCell>
        <mxCell id="IOj1brbXSDFdIHuz_lz_-87" value="" style="edgeStyle=orthogonalEdgeStyle;rounded=0;orthogonalLoop=1;jettySize=auto;html=1;" edge="1" parent="1" source="IOj1brbXSDFdIHuz_lz_-84" target="IOj1brbXSDFdIHuz_lz_-86">
          <mxGeometry relative="1" as="geometry" />
        </mxCell>
        <mxCell id="IOj1brbXSDFdIHuz_lz_-84" value="" style="shape=waypoint;sketch=0;size=6;pointerEvents=1;points=[];fillColor=default;resizable=0;rotatable=0;perimeter=centerPerimeter;snapToPoint=1;" vertex="1" parent="1">
          <mxGeometry x="350" y="1765" width="40" height="40" as="geometry" />
        </mxCell>
        <mxCell id="IOj1brbXSDFdIHuz_lz_-86" value="&quot;" style="whiteSpace=wrap;html=1;sketch=0;" vertex="1" parent="1">
          <mxGeometry x="310" y="1875" width="120" height="60" as="geometry" />
        </mxCell>
      </root>
    </mxGraphModel>
  </diagram>
</mxfile>
